PathFileType	4	(X/Y/Z)	C:/Users/opensim2020/Desktop/walking_exp_matlab/subject01_walking12_straight_02.trc																																																																																																																																		
DataRate	CameraRate	NumFrames	NumMarkers	Units	OrigDataRate	OrigDataStartFrame	OrigNumFrames																																																																																																																														
100	100	7	44	mm	100	1308	122																																																																																																																														
Frame#	Time	LFHD			RFHD			LBHD			RBHD			C7			T10			CLAV			STRN			RBAK			LSHO			LUPA			LELB			LFRM			LWRA			LWRB			LFIN			RSHO			RUPA			RELB			RFRM			RWRA			RWRB			RFIN			LASI			RASI			LPSI			RPSI			LTHI			LKNE			LTIB			LANK			LHEE			LTOE			RTHI			RKNE			RTIB			RANK			RHEE			RTOE			*39			*40			*41			*42			*43		
		X1	Y1	Z1	X2	Y2	Z2	X3	Y3	Z3	X4	Y4	Z4	X5	Y5	Z5	X6	Y6	Z6	X7	Y7	Z7	X8	Y8	Z8	X9	Y9	Z9	X10	Y10	Z10	X11	Y11	Z11	X12	Y12	Z12	X13	Y13	Z13	X14	Y14	Z14	X15	Y15	Z15	X16	Y16	Z16	X17	Y17	Z17	X18	Y18	Z18	X19	Y19	Z19	X20	Y20	Z20	X21	Y21	Z21	X22	Y22	Z22	X23	Y23	Z23	X24	Y24	Z24	X25	Y25	Z25	X26	Y26	Z26	X27	Y27	Z27	X28	Y28	Z28	X29	Y29	Z29	X30	Y30	Z30	X31	Y31	Z31	X32	Y32	Z32	X33	Y33	Z33	X34	Y34	Z34	X35	Y35	Z35	X36	Y36	Z36	X37	Y37	Z37	X38	Y38	Z38	X39	Y39	Z39	X40	Y40	Z40	X41	Y41	Z41	X42	Y42	Z42	X43	Y43	Z43	X44	Y44	Z44
																																																																																																																																					
62	0.61	-230.20343	1672.83826	-1492.48914	-209.97496	1675.26355	-1380.98914	-345.59869	1627.52563	-1479.17676	-327.04837	1628.62244	-1359.82153	-379.27856	1430.80383	-1438.60095	-407.71643	1135.74976	-1434.51563	-234.80681	1365.69189	-1445.94055	-187.12654	1213.5979	-1458.45081	-424.57904	1231.82922	-1362.69092	-304.36771	1396.93335	-1603.59595	-336.00555	1217.67163	-1693.59558	-336.64581	1062.72571	-1704.38293	-261.28305	975.64404	-1736.14612	-140.3558	906.07391	-1730.74475	-190.65132	877.04529	-1746.65503	-120.86246	835.23468	-1767.31787	-290.44458	1388.00964	-1290.22314	-352.44882	1187.38049	-1192.37793	-362.72986	1063.83313	-1195.49048	-353.89865	944.30078	-1169.23108	-300.22354	814.37561	-1197.27429	-338.09814	822.90454	-1153.00049	-317.91321	739.33228	-1160.87769	-236.40004	929.43134	-1556.79968	-217.35063	937.00232	-1340.83044	-417.11096	939.36884	-1488.17444	-403.36624	946.91217	-1343.59314	-255.25867	596.72528	-1624.11804	-264.31509	463.58246	-1621.1897	-416.2395	357.62479	-1620.46582	-585.86176	228.67474	-1554.18079	-616.38196	247.71097	-1491.16199	-567.17511	80.02919	-1560.28369	-237.93645	602.42102	-1290.2605	-211.14607	447.61871	-1324.11694	-258.47757	276.10529	-1320.79236	-282.19781	74.73229	-1376.40442	-333.47409	38.36171	-1424.11743	-142.29605	36.04366	-1381.38513	-223.32806	1709.18066	-1401.52979	-1973.07593	1023.68219	3101.91577	-2012.45007	1022.01794	3140.65234	NaN	NaN	NaN	NaN	NaN	NaN
63	0.62	-217.70869	1673.68555	-1492.35779	-197.5708	1676.04309	-1380.76355	-333.23248	1628.67468	-1479.14514	-314.76361	1629.73218	-1359.73706	-367.28201	1431.90845	-1438.34167	-395.97537	1136.84521	-1434.08118	-222.96393	1366.61096	-1445.96631	-175.3376	1214.55164	-1458.2262	-412.78928	1233.12793	-1362.27832	-292.75421	1397.95947	-1603.59058	-326.10931	1218.50769	-1692.68298	-328.66348	1063.67859	-1702.57996	-256.00772	974.38647	-1734.01672	-136.95789	901.35938	-1728.65369	-188.22076	873.61755	-1744.08716	-119.44195	829.53735	-1764.2157	-278.34525	1389.36108	-1290.12671	-338.52383	1188.41394	-1191.6731	-347.54654	1064.63013	-1194.39136	-335.95782	945.07568	-1168.17224	-279.83035	816.44183	-1196.73792	-317.37082	824.1991	-1152.14185	-295.16324	741.1004	-1160.13879	-223.95587	931.13715	-1555.95654	-206.23225	937.73004	-1339.71106	-405.08002	940.44415	-1488.47852	-392.3569	947.50934	-1343.92029	-235.19449	599.44415	-1624.58948	-241.26099	466.35825	-1621.60291	-392.45288	359.68256	-1618.87683	-560.72961	228.39592	-1552.56812	-591.95221	245.09421	-1488.646	-536.65735	81.21149	-1562.84241	-230.93585	602.48883	-1290.21558	-207.21365	447.29614	-1323.5697	-256.23059	276.06516	-1320.36279	-281.80444	74.54784	-1376.3999	-333.2648	38.93027	-1424.14111	-142.04608	35.84247	-1381.31238	-210.74707	1710.03674	-1401.33594	-1973.09412	1023.40198	3101.89771	-2012.5321	1021.987	3140.71655	NaN	NaN	NaN	NaN	NaN	NaN
64	0.63	-205.18086	1674.34265	-1492.34802	-185.16661	1676.69775	-1380.73743	-320.82443	1629.61328	-1479.1499	-302.48029	1630.70557	-1359.7511	-355.40198	1432.93359	-1438.21777	-384.36465	1137.78113	-1433.74341	-211.25435	1367.51831	-1446.0061	-163.63898	1215.38184	-1457.98352	-401.06219	1234.26428	-1361.80518	-281.22763	1398.87231	-1603.53149	-316.06412	1219.26794	-1691.90601	-320.62457	1064.58276	-1700.84351	-250.73581	973.25525	-1731.96802	-133.89442	896.66479	-1726.42334	-185.91197	870.29736	-1741.54907	-118.61471	823.92944	-1761.44031	-266.5036	1390.46484	-1290.28699	-324.94852	1189.32239	-1191.00293	-332.49991	1065.44458	-1192.89783	-318.04654	945.90179	-1167.12573	-258.77496	818.81506	-1196.00171	-295.84537	825.59448	-1151.80701	-271.81174	743.34418	-1159.22803	-211.58076	932.74829	-1555.03247	-195.28545	938.28223	-1338.58289	-393.16141	941.57471	-1489.00854	-381.36981	948.09692	-1344.38989	-215.4798	602.24731	-1625.17798	-218.70728	469.14026	-1621.96814	-368.8584	361.34851	-1617.24768	-535.15332	227.03233	-1551.06128	-567.52936	241.33542	-1486.64563	-504.13565	81.90144	-1565.18762	-224.26994	602.56982	-1289.99353	-203.27242	446.7131	-1322.88928	-253.72704	276.08212	-1320.104	-281.02682	74.97924	-1376.29883	-332.71384	40.27483	-1424.45178	-141.79462	35.60666	-1381.26831	-198.24333	1710.73279	-1401.34814	-1973.14453	1023.61884	3101.97534	-2012.47217	1021.97223	3140.73291	NaN	NaN	NaN	NaN	NaN	NaN
65	0.64	-192.70168	1674.77197	-1492.41235	-172.73013	1677.23071	-1380.84644	-308.52341	1630.41211	-1479.33154	-290.21814	1631.56421	-1359.91992	-343.64825	1433.83984	-1438.17505	-372.77487	1138.62366	-1433.50708	-199.56029	1368.28418	-1446.04724	-152.02147	1216.04712	-1457.71423	-389.42487	1235.32764	-1361.27063	-269.75555	1399.69348	-1603.50269	-305.88187	1219.95776	-1691.23218	-312.5448	1065.47827	-1699.09192	-245.45428	972.0946	-1729.85193	-130.85918	891.98975	-1724.12744	-183.71956	867.14465	-1739.06201	-117.77087	818.35535	-1758.40222	-254.65182	1391.57471	-1290.21875	-311.34131	1190.2124	-1190.28711	-317.51514	1066.01282	-1191.85608	-300.0506	946.69843	-1166.11682	-237.09418	821.4787	-1195.12354	-275.10223	826.95197	-1150.98792	-248.25797	745.66089	-1158.32849	-199.39919	934.20105	-1554.07349	-184.47682	938.70142	-1337.51318	-381.29684	942.6524	-1489.69409	-370.51221	948.7298	-1345.01758	-196.33595	605.04803	-1625.65479	-196.80879	471.71539	-1622.1571	-345.66217	362.99252	-1615.80627	-509.04733	224.54588	-1549.94373	-542.73889	236.26634	-1485.24927	-470.27118	82.36559	-1567.24573	-217.99721	602.74664	-1289.77625	-199.21524	446.65421	-1322.74878	-251.34743	276.36646	-1319.93433	-280.66739	75.34697	-1376.33264	-332.6716	41.15414	-1424.76306	-141.55006	35.44051	-1381.40771	-185.69116	1711.27466	-1401.48413	-1973.13574	1023.52069	3101.97998	-2012.53809	1022.09558	3140.67358	NaN	NaN	NaN	NaN	NaN	NaN
66	0.65	-180.22919	1675.10034	-1492.58008	-160.32986	1677.60852	-1381.01758	-296.15826	1631.12085	-1479.5636	-277.9938	1632.34094	-1360.15234	-331.97034	1434.51892	-1438.10522	-361.27994	1139.28589	-1433.32507	-187.95937	1368.8905	-1446.10181	-140.40729	1216.69287	-1457.48523	-377.72348	1236.22302	-1360.67346	-258.28638	1400.41028	-1603.49707	-295.69391	1220.57703	-1690.79883	-304.41693	1066.33411	-1697.40417	-240.15746	971.00269	-1727.75427	-128.13081	887.45966	-1721.83606	-181.65492	864.12939	-1736.51062	-117.19666	813.05151	-1755.4386	-242.92815	1392.56494	-1290.16553	-298.09479	1190.93884	-1189.55408	-302.5979	1066.51428	-1190.37817	-282.06152	947.3988	-1165.1665	-216.12706	823.96851	-1194.71252	-253.957	828.31842	-1150.41345	-224.47093	748.14349	-1157.45911	-187.31346	935.48914	-1553.1438	-173.51202	939.15601	-1336.474	-369.46341	943.61749	-1490.42725	-359.75522	949.44733	-1345.74719	-177.69244	607.69006	-1625.82935	-175.54211	474.37918	-1622.27173	-322.86642	364.33694	-1614.46057	-482.07172	220.84587	-1549.10669	-517.50885	229.98692	-1484.40991	-435.06458	82.00081	-1568.61121	-211.83867	602.80762	-1289.56714	-195.04279	445.95386	-1322.27405	-248.43623	276.37741	-1319.86206	-280.18747	75.90985	-1376.40503	-332.61569	40.94127	-1424.70264	-141.02904	35.66751	-1381.20789	-173.12199	1711.74927	-1401.69617	-1973.07056	1023.39093	3102.00171	-2012.54138	1022.11603	3140.7395	NaN	NaN	NaN	NaN	NaN	NaN
67	0.66	-167.70256	1675.3064	-1492.83704	-147.93861	1677.82935	-1381.26965	-283.76965	1631.73547	-1479.87268	-265.7424	1632.97656	-1360.4519	-320.28415	1434.9729	-1437.94092	-349.80219	1139.87256	-1433.09131	-176.37207	1369.36938	-1446.10767	-128.9202	1217.10974	-1457.26221	-366.13138	1237.00403	-1360.11609	-246.7856	1400.90576	-1603.48193	-285.44623	1221.11145	-1690.4314	-296.21628	1067.06775	-1695.69263	-234.75279	969.901	-1725.68335	-125.27148	882.91107	-1719.40369	-179.4791	861.14844	-1733.88379	-116.5638	807.7157	-1752.24548	-231.22035	1393.20044	-1290.29077	-284.78305	1191.66553	-1188.92163	-287.84335	1066.87646	-1189.10327	-264.1687	948.04706	-1164.27905	-194.70264	826.70868	-1194.14197	-232.28813	829.93951	-1150.16016	-200.60225	750.85895	-1156.79773	-175.35931	936.59747	-1552.22021	-162.87561	939.31567	-1335.48486	-357.76846	944.49786	-1491.14038	-348.98181	950.11407	-1346.51794	-159.38522	610.45923	-1626.2478	-154.83118	477.12946	-1622.33142	-300.10095	365.04315	-1613.07422	-454.47055	216.17212	-1548.7251	-491.54126	222.71776	-1484.13062	-399.66754	81.19643	-1569.87354	-205.65919	602.89423	-1289.35193	-190.71588	445.56406	-1322.16541	-246.12691	276.65021	-1319.69055	-280.23071	76.14094	-1376.16382	-332.40344	41.61309	-1424.80164	-140.82123	35.58433	-1381.19348	-160.69278	1711.99121	-1402.03442	-1973.01379	1023.50122	3102.0603	-2012.37183	1021.89142	3140.78711	NaN	NaN	NaN	NaN	NaN	NaN
68	0.67	-155.22847	1675.3772	-1493.23303	-135.48193	1677.94421	-1381.64844	-271.46848	1632.24805	-1480.23767	-253.46941	1633.55261	-1360.81958	-308.45383	1435.2821	-1437.81311	-338.40262	1140.3429	-1432.84094	-164.77472	1369.76904	-1446.20801	-117.39989	1217.44153	-1457.20593	-354.48019	1237.65076	-1359.60535	-235.27798	1401.31177	-1603.62329	-275.27057	1221.46436	-1690.13367	-287.91708	1067.6908	-1694.09753	-229.21011	968.80096	-1723.65601	-122.43016	878.42303	-1716.92261	-177.36687	858.34015	-1731.3241	-116.42419	802.66406	-1749.40808	-219.56325	1393.80432	-1290.42639	-271.56439	1192.31165	-1188.18933	-273.21875	1067.12939	-1187.94836	-246.21979	948.74036	-1163.39575	-172.8889	829.84192	-1193.52686	-211.27145	831.49084	-1149.5564	-176.76457	753.79077	-1156.18481	-163.50838	937.38141	-1551.39551	-152.25946	939.34644	-1334.55835	-346.25024	945.24158	-1491.7926	-338.07578	950.62677	-1347.25952	-141.64722	612.97571	-1626.4751	-134.33769	479.7757	-1622.20679	-277.08676	364.91339	-1611.80591	-426.41714	210.69576	-1548.94995	-464.69571	214.61285	-1484.36206	-363.57944	79.50208	-1570.8717	-199.35526	602.77576	-1289.21338	-186.58745	445.05746	-1321.90161	-244.06757	277.01169	-1319.59717	-279.74017	76.62063	-1376.46411	-332.84473	41.91217	-1425.52905	-140.56693	35.51836	-1381.18823	-148.12581	1712.03821	-1402.34375	-1973.1167	1023.43109	3101.89624	-2012.41284	1022.07635	3140.66968	NaN	NaN	NaN	NaN	NaN	NaN
